<svg xmlns="http://www.w3.org/2000/svg" viewBox="0 0 486.49 473.3"><defs><style>.cls-1,.cls-8{fill:#92e3a9;}.cls-13,.cls-16,.cls-2,.cls-5{fill:#fff;}.cls-2{opacity:0.8;}.cls-3{opacity:0.1;}.cls-4,.cls-6,.cls-9{fill:none;}.cls-11,.cls-12,.cls-13,.cls-14,.cls-15,.cls-4,.cls-6,.cls-8,.cls-9{stroke:#263238;}.cls-11,.cls-12,.cls-13,.cls-4,.cls-8,.cls-9{stroke-linecap:round;stroke-linejoin:round;}.cls-4{stroke-width:3px;}.cls-5,.cls-7{opacity:0.3;}.cls-14,.cls-15,.cls-6{stroke-miterlimit:10;}.cls-10,.cls-11,.cls-15{fill:#263238;}.cls-12{fill:#c4c4c4;}.cls-14{fill:#a6a6a6;}</style></defs><title>7809462</title><g id="Background_Simple" data-name="Background Simple"><path class="cls-1" d="M461.65,383.47c27.81-62.53,29.68-145.83,10.48-212.61C455.6,113.36,418.82,69.5,376.34,43.39,327,13.08,268.28,4.07,215.39,23.19c-13.92,5-27.47,9.64-40.59,17.9C121,75,131.4,158.44,112.53,187.48c-15.88,24.43-46.24,17.22-65.37,35.94C-4.49,273.94-4.62,401.62,55,441.54,118.19,483.88,392.77,538.32,461.65,383.47Z" transform="translate(-4.22 -13.16)"/><path class="cls-2" d="M461.65,383.47c27.81-62.53,29.68-145.83,10.48-212.61C455.6,113.36,418.82,69.5,376.34,43.39,327,13.08,268.28,4.07,215.39,23.19c-13.92,5-27.47,9.64-40.59,17.9C121,75,131.4,158.44,112.53,187.48c-15.88,24.43-46.24,17.22-65.37,35.94C-4.49,273.94-4.62,401.62,55,441.54,118.19,483.88,392.77,538.32,461.65,383.47Z" transform="translate(-4.22 -13.16)"/></g><g id="Bricks"><g class="cls-3"><rect x="394.88" y="220.08" width="34.76" height="14.07" rx="1.65"/><rect x="394.88" y="254.58" width="34.76" height="14.07" rx="1.65"/><rect x="412.89" y="237.08" width="34.76" height="14.07" rx="1.65"/><rect x="375.86" y="237.08" width="34.76" height="14.07" rx="1.65"/><rect x="416.7" y="83.34" width="34.76" height="14.07" rx="1.65"/><rect x="416.7" y="117.85" width="34.76" height="14.07" rx="1.65"/><rect x="434.71" y="100.34" width="34.76" height="14.07" rx="1.65"/><rect x="397.68" y="100.34" width="34.76" height="14.07" rx="1.65"/><rect x="35.88" y="290.9" width="34.76" height="14.07" rx="1.65"/><rect x="35.88" y="325.41" width="34.76" height="14.07" rx="1.65"/><rect x="53.9" y="307.9" width="34.76" height="14.07" rx="1.65"/><rect x="16.87" y="307.9" width="34.76" height="14.07" rx="1.65"/><rect x="157.55" y="126.42" width="34.76" height="14.07" rx="1.65"/><rect x="157.55" y="160.93" width="34.76" height="14.07" rx="1.65"/><rect x="175.56" y="143.43" width="34.76" height="14.07" rx="1.65"/><rect x="138.53" y="143.43" width="34.76" height="14.07" rx="1.65"/><rect x="78.69" y="126.42" width="34.76" height="14.07" rx="1.65"/><rect x="78.69" y="160.93" width="34.76" height="14.07" rx="1.65"/><rect x="96.7" y="143.43" width="34.76" height="14.07" rx="1.65"/><rect x="59.68" y="143.43" width="34.76" height="14.07" rx="1.65"/><rect x="113.99" y="52.35" width="34.76" height="14.07" rx="1.65"/><rect x="77.18" y="52.35" width="34.76" height="14.07" rx="1.65"/><rect x="113.99" y="86.85" width="34.76" height="14.07" rx="1.65"/><rect x="132" y="69.35" width="34.76" height="14.07" rx="1.65"/><rect x="94.97" y="69.35" width="34.76" height="14.07" rx="1.65"/><rect x="255.19" y="172.51" width="34.76" height="14.07" rx="1.65"/><rect x="255.19" y="207.02" width="34.76" height="14.07" rx="1.65"/><rect x="273.2" y="189.52" width="34.76" height="14.07" rx="1.65"/><rect x="236.17" y="189.52" width="34.76" height="14.07" rx="1.65"/><rect x="330.29" y="172.51" width="34.76" height="14.07" rx="1.65"/><rect x="293.48" y="172.51" width="34.76" height="14.07" rx="1.65"/><rect x="330.29" y="207.02" width="34.76" height="14.07" rx="1.65"/><rect x="348.3" y="189.52" width="34.76" height="14.07" rx="1.65"/><rect x="311.27" y="189.52" width="34.76" height="14.07" rx="1.65"/><rect x="355.83" y="290.42" width="34.76" height="14.07" rx="1.65"/><rect x="355.83" y="324.93" width="34.76" height="14.07" rx="1.65"/><rect x="373.84" y="307.43" width="34.76" height="14.07" rx="1.65"/><rect x="336.81" y="307.43" width="34.76" height="14.07" rx="1.65"/><rect x="430.93" y="290.42" width="34.76" height="14.07" rx="1.65"/><rect x="394.11" y="290.42" width="34.76" height="14.07" rx="1.65"/><rect x="430.93" y="324.93" width="34.76" height="14.07" rx="1.65"/><rect x="448.94" y="307.43" width="34.76" height="14.07" rx="1.65"/><rect x="411.91" y="307.43" width="34.76" height="14.07" rx="1.65"/><rect x="297.51" y="364.78" width="34.76" height="14.07" rx="1.65"/><rect x="297.51" y="399.28" width="34.76" height="14.07" rx="1.65"/><rect x="315.52" y="381.78" width="34.76" height="14.07" rx="1.65"/><rect x="278.5" y="381.78" width="34.76" height="14.07" rx="1.65"/><rect x="189.58" y="52.35" width="34.76" height="14.07" rx="1.65"/><rect x="189.58" y="86.85" width="34.76" height="14.07" rx="1.65"/><rect x="207.59" y="69.35" width="34.76" height="14.07" rx="1.65"/><rect x="170.56" y="69.35" width="34.76" height="14.07" rx="1.65"/></g></g><g id="Plant"><path class="cls-4" d="M108,228s.67,84.87.67,107.28S108,455.06,108,455.06" transform="translate(-4.22 -13.16)"/><polygon class="cls-1" points="154.73 236.53 133.68 218.87 192.76 225.66 140.47 208.69 194.11 199.18 133.68 199.18 180.53 163.87 127.57 190.35 158.13 138.07 117.39 184.92 131.64 116.34 105.16 180.17 102.45 108.87 97.01 181.53 68.12 117.34 88.19 187.64 44.97 140.49 82.75 198.5 29.26 160.34 79.36 208.69 22.64 177.7 74.61 212.76 27.61 206.64 73.25 219.55 36.7 225.66 74.61 224.31 52.2 239.24 105.16 224.98 154.73 236.53"/><polygon class="cls-5" points="154.73 236.53 133.68 218.87 192.76 225.66 140.47 208.69 194.11 199.18 133.68 199.18 180.53 163.87 127.57 190.35 158.13 138.07 117.39 184.92 131.64 116.34 105.16 180.17 102.45 108.87 97.01 181.53 68.12 117.34 88.19 187.64 44.97 140.49 82.75 198.5 29.26 160.34 79.36 208.69 22.64 177.7 74.61 212.76 27.61 206.64 73.25 219.55 36.7 225.66 74.61 224.31 52.2 239.24 105.16 224.98 154.73 236.53"/><polygon class="cls-1" points="132.09 420.7 111.04 403.05 170.11 409.83 117.83 392.86 171.47 383.35 111.04 383.35 157.89 348.04 104.93 374.53 135.48 322.24 94.74 369.09 109 300.51 82.52 364.34 79.8 293.04 74.37 365.7 45.48 301.51 65.54 371.81 22.32 324.67 60.11 382.67 6.62 344.51 56.72 392.86 0 361.87 51.96 396.93 4.96 390.81 50.6 403.72 14.06 409.83 51.96 408.48 29.55 423.42 82.52 409.16 132.09 420.7"/><polygon class="cls-5" points="132.09 420.7 111.04 403.05 170.11 409.83 117.83 392.86 171.47 383.35 111.04 383.35 157.89 348.04 104.93 374.53 135.48 322.24 94.74 369.09 109 300.51 82.52 364.34 79.8 293.04 74.37 365.7 45.48 301.51 65.54 371.81 22.32 324.67 60.11 382.67 6.62 344.51 56.72 392.86 0 361.87 51.96 396.93 4.96 390.81 50.6 403.72 14.06 409.83 51.96 408.48 29.55 423.42 82.52 409.16 132.09 420.7"/><path class="cls-4" d="M87.65,313.51s-2,17.66-.67,24.45a124.64,124.64,0,0,1,2,23.76c0,8.83.68,9.51.68,15.62s-.68,58-.68,62.78V454.9" transform="translate(-4.22 -13.16)"/><path class="cls-4" d="M89.69,370.55s2.72-14.94,5.43-21.73,4.76-4.75,5.44-12.9.68-11.54,2-14.26a55.81,55.81,0,0,0,2.72-7.47l1.36-5.43" transform="translate(-4.22 -13.16)"/><polygon class="cls-1" points="133.68 318.01 112.63 300.36 171.71 307.15 119.42 290.17 173.06 280.66 112.63 280.66 159.48 245.35 106.52 271.84 137.08 219.55 96.33 266.4 110.59 197.82 84.11 261.65 81.4 190.35 75.97 263.01 54.91 197.15 67.14 269.12 29.79 215.48 61.7 279.99 12.72 247.98 58.31 290.17 7.76 269.48 53.56 294.24 6.11 290.15 52.2 301.03 20.16 308.34 53.56 305.79 31.15 320.73 84.11 306.47 133.68 318.01"/><polygon class="cls-5" points="133.68 318.01 112.63 300.36 171.71 307.15 119.42 290.17 173.06 280.66 112.63 280.66 159.48 245.35 106.52 271.84 137.08 219.55 96.33 266.4 110.59 197.82 84.11 261.65 81.4 190.35 75.97 263.01 54.91 197.15 67.14 269.12 29.79 215.48 61.7 279.99 12.72 247.98 58.31 290.17 7.76 269.48 53.56 294.24 6.11 290.15 52.2 301.03 20.16 308.34 53.56 305.79 31.15 320.73 84.11 306.47 133.68 318.01"/></g><g id="Table"><line class="cls-6" x1="7.82" y1="443.26" x2="486.49" y2="443.26"/></g><g id="Ladles"><path class="cls-7" d="M475.42,73.44H318.73a4.89,4.89,0,0,0-4.88,4.88v1.44a4.89,4.89,0,0,0,4.88,4.89h29.68l1.72,51.84c-4.57,1.4-7.85,7-7.85,13.46,0,7.05,4.25,20.6,10.06,20.6S362.41,157,362.41,150c0-6.39-3.22-11.95-7.72-13.42l2-51.88h17.91l1.76,70.79c-4.57,1.4-7.85,7-7.85,13.46,0,7,4.25,20.6,10.06,20.6s10.07-13.55,10.07-20.6c0-6.39-3.23-12-7.72-13.42L383,84.65h17.84L402.62,170c-4.58,1.39-7.86,7-7.86,13.46,0,7.05,4.25,20.6,10.06,20.6s10.07-13.55,10.07-20.6c0-6.4-3.23-12-7.72-13.42l2.08-85.41h17.86l1.68,56.94a15.7,15.7,0,1,0,4.69.08l2-57h17.93l1.72,51.84c-4.57,1.4-7.85,7-7.85,13.46,0,7.05,4.25,20.6,10.06,20.6S467.37,157,467.37,150c0-6.39-3.23-11.95-7.72-13.42l2-51.88h13.76a4.89,4.89,0,0,0,4.89-4.89V78.32A4.89,4.89,0,0,0,475.42,73.44ZM318.73,83.65a3.89,3.89,0,0,1-3.88-3.89V78.32a3.88,3.88,0,0,1,3.88-3.88h31.44l-.25.22a6.87,6.87,0,0,0-1.67,5l.13,4Zm38,0,.16-4.12a6.87,6.87,0,0,0-1.71-4.91c-.07-.07-.14-.12-.21-.18h21.44l-.25.22a6.87,6.87,0,0,0-1.67,5l.09,4Zm26.28,0,.12-4.12a6.87,6.87,0,0,0-1.71-4.91c-.07-.07-.14-.12-.21-.18h21.44l-.25.22a6.87,6.87,0,0,0-1.67,5l.08,4Zm26.26,0,.1-4.12a6.87,6.87,0,0,0-1.71-4.91l-.21-.18h21.44l-.25.22a6.92,6.92,0,0,0-1.68,5l.12,4Zm26.2,0,.14-4.12a6.87,6.87,0,0,0-1.71-4.91c-.07-.07-.14-.12-.21-.18h21.43l-.24.22a6.87,6.87,0,0,0-1.67,5l.13,4Zm43.84-3.89a3.89,3.89,0,0,1-3.89,3.89H461.69l.16-4.12a6.87,6.87,0,0,0-1.71-4.91c-.07-.07-.14-.12-.21-.18h15.49a3.89,3.89,0,0,1,3.89,3.88Z" transform="translate(-4.22 -13.16)"/></g><g id="Character"><path class="cls-8" d="M336.92,455.88,315.67,319.49s39.53,29.58,42.85,28.75,11.61-16.59,11.61-16.59a47.7,47.7,0,0,0,.28-22.11C367.65,297.65,359.35,262,359.35,262l-21.56-2.21-1.11,9.4s-22.95-44.51-24.33-47-17.14.55-23,.55-22.11-5-22.11-5l-59.72-.83s-36.77,5.53-38.71,9.12-5,18.25-5.25,19.36-32.35,39.53-40.37,51.42-7.74,42.85-.83,45.89,23.5-1.93,27.93-6.91,14.93-16.31,18.8-23.22,5-13.27,7.19-16,8.29-10.78,8.29-10.78,7.42,42.94,5.64,85.91c-1.18,28.57-6.58,80.62-6,85" transform="translate(-4.22 -13.16)"/><path class="cls-9" d="M238.81,241.8s-12.17,1.38-12.72,3.6S241.39,443,241.39,443" transform="translate(-4.22 -13.16)"/><circle class="cls-10" cx="232.8" cy="239.13" r="2.28"/><path class="cls-10" d="M273.82,247.73a2.28,2.28,0,1,1-2.27-2.28A2.28,2.28,0,0,1,273.82,247.73Z" transform="translate(-4.22 -13.16)"/><path class="cls-10" d="M241.19,284.91a2.28,2.28,0,1,1-2.27-2.27A2.28,2.28,0,0,1,241.19,284.91Z" transform="translate(-4.22 -13.16)"/><path class="cls-10" d="M243.09,317.55a2.28,2.28,0,1,1-2.28-2.28A2.28,2.28,0,0,1,243.09,317.55Z" transform="translate(-4.22 -13.16)"/><path class="cls-10" d="M245,350.18a2.28,2.28,0,1,1-2.28-2.28A2.28,2.28,0,0,1,245,350.18Z" transform="translate(-4.22 -13.16)"/><path class="cls-10" d="M279.51,345.62a2.28,2.28,0,1,1-2.27-2.27A2.28,2.28,0,0,1,279.51,345.62Z" transform="translate(-4.22 -13.16)"/><path class="cls-10" d="M246.88,382.81a2.28,2.28,0,1,1-2.27-2.28A2.27,2.27,0,0,1,246.88,382.81Z" transform="translate(-4.22 -13.16)"/><path class="cls-10" d="M281.41,378.25a2.28,2.28,0,1,1-2.28-2.27A2.28,2.28,0,0,1,281.41,378.25Z" transform="translate(-4.22 -13.16)"/><path class="cls-9" d="M141.46,311s6.59,5.65,8.79,16.64" transform="translate(-4.22 -13.16)"/><path class="cls-9" d="M142.4,307.9s11,2.82,15.38,8.79" transform="translate(-4.22 -13.16)"/><path class="cls-8" d="M125.21,281.76s-10,11.35-15.29,17.84-10.66,10.19-9.5,14.59-.92,19.7,11.82,25.95,20.16,5.1,22.24,3.71,12.28-22.94,12.28-22.94-2.08-15.52-4.86-19.92S125.21,281.76,125.21,281.76Z" transform="translate(-4.22 -13.16)"/><path class="cls-11" d="M125.21,281.76s-10,11.35-15.29,17.84c-1.51,1.84-3,3.45-4.39,4.93,1.4,4.33,4.7,11.13,12.49,17.69,6.93,5.85,15.83,9.34,22.53,11.32,3.13-6.1,6.21-12.63,6.21-12.63s-2.08-15.52-4.86-19.92S125.21,281.76,125.21,281.76Z" transform="translate(-4.22 -13.16)"/><path class="cls-9" d="M125.21,281.76l-6.67,13.4s5.94,15.81,16,21a47.34,47.34,0,0,0,12.18,4.74s-2.08-15.52-4.86-19.92S125.21,281.76,125.21,281.76Z" transform="translate(-4.22 -13.16)"/><path class="cls-11" d="M113.21,232.38a10.91,10.91,0,0,0-2.73,5.21c-.49,3,7.2,9.92,7.2,9.92l3.22-3s-5.21-3.72-6.45-6.7,1.74-6.7,1.74-6.7A2.84,2.84,0,0,0,113.21,232.38Z" transform="translate(-4.22 -13.16)"/><path class="cls-12" d="M113.21,232.38s84.32,64.24,87.55,66.72l5.21.25s-88.29-67.71-89.78-68.21S113.21,232.38,113.21,232.38Z" transform="translate(-4.22 -13.16)"/><path class="cls-12" d="M200.76,299.1s10.66,10.41,24.3,13.39,21.69-8,23.81-11.41a33.84,33.84,0,0,0,4.46-12.65Z" transform="translate(-4.22 -13.16)"/><path class="cls-13" d="M134.58,252.58l-.56,1.86-7.74,25.79-7.74,14.93s.56,8.29,4.7,13.27,11.34,7.74,11.34,7.74l9.68-19.07s6.63-.83,9.67-3.05,12.44-5,12.72-7.18a8.86,8.86,0,0,0-.55-4.15s1.1-3.59.83-5.25l-.28-1.66a34.62,34.62,0,0,0-.28-4.43l-.27-1.66a13,13,0,0,0-.56-6.08c-1.1-3-2.21-3.32-4.7-4.14s-17.14-5-19.07-5.53C141.77,254,138,250.52,134.58,252.58Z" transform="translate(-4.22 -13.16)"/><path class="cls-9" d="M137.14,263.81a3.65,3.65,0,0,1,2.4.57c1.49.8,2.52,1.72,13.86,2.52s12.7,2.82,12.7,2.82" transform="translate(-4.22 -13.16)"/><path class="cls-9" d="M143.37,275.57c4.37.34,9.76.72,12.1.72,4.23,0,10.68-1,11.18-.48" transform="translate(-4.22 -13.16)"/><path class="cls-9" d="M136.91,275l3.36.29" transform="translate(-4.22 -13.16)"/><line class="cls-9" x1="140.59" y1="275.05" x2="161.88" y2="269.56"/><path class="cls-9" d="M136.33,293.59c1.95.58,6.19,2.29,6.19,2.29" transform="translate(-4.22 -13.16)"/><path class="cls-9" d="M128.54,280a29.88,29.88,0,0,0-.11,4.12c.11,1.84,2.52,4.82,2.52,4.82s.86,1,2,2.13" transform="translate(-4.22 -13.16)"/><path class="cls-13" d="M141.77,254s.86-5.28,2.58-5.86,6.19-1.26,6.65-.23,4.47,6.65,4.81,8a2.79,2.79,0,0,1,0,2Z" transform="translate(-4.22 -13.16)"/><line class="cls-9" x1="174.1" y1="239.91" x2="172.89" y2="233.61"/><line class="cls-9" x1="180.4" y1="272.6" x2="175.26" y2="245.89"/><path class="cls-9" d="M315.67,319.49s-3.48-42.14-3.48-52.1-.69-32.9-.69-32.9" transform="translate(-4.22 -13.16)"/><line class="cls-9" x1="314.47" y1="257.46" x2="309.83" y2="270.92"/><line class="cls-9" x1="316.78" y1="250.76" x2="315.61" y2="254.15"/><path class="cls-9" d="M325.93,312.37c-.67,4-.87,6.88-.3,7.62,2.55,3.24,7.65,5.79,7.65,5.79" transform="translate(-4.22 -13.16)"/><path class="cls-9" d="M335.83,271.79s-5.78,20.37-8.77,34.68" transform="translate(-4.22 -13.16)"/><path class="cls-9" d="M323.78,320.91s7.41,9.5,12.05,10.2" transform="translate(-4.22 -13.16)"/><path class="cls-11" d="M337,266.7s5.33,11.35,10.89,13.67S362,272.26,362,272.26l4.4,20.15s-5.33,7.42-9.5,10.2-12.05,1.62-15.52-3.48-7.88-17.61-7.88-17.61Z" transform="translate(-4.22 -13.16)"/><path class="cls-13" d="M337,266.7s.46-19.47-.24-24.8-6.25-31.74-6.95-34.75.93-7.88,1.86-11.12-.23-8.81,1.39-9,3.94,1.86,4.4,5.79a36.76,36.76,0,0,1,.23,6.72V203l7.88-1.85s19.93,11.81,20.16,13.9-10.2,20.39-10.89,22S362,272.26,362,272.26s-4.87,7.87-10.19,10.66-8.35-1.16-10.2-5.33S337,266.7,337,266.7Z" transform="translate(-4.22 -13.16)"/><path class="cls-13" d="M353.44,200.43s-3-11.35-3.94-14.36-1.16-13.44-3-13-3,1.85-3.25,9.73a71.42,71.42,0,0,0,1.39,15.29Z" transform="translate(-4.22 -13.16)"/><path class="cls-13" d="M359.92,206.45s-1.15-3.7-3.47-4.63-11.82-6.26-13-6.26-5.33,9.74-6.72,11.59a1.91,1.91,0,0,0,1.39,3.24c1.16,0,7.65-7.41,7.65-7.41l3.48.69Z" transform="translate(-4.22 -13.16)"/><path class="cls-13" d="M363.86,210.86a18.22,18.22,0,0,0-1.85-3.25c-.93-1.16-12.51-6.72-13.67-6.25s-4.4,9-6,12-1.86,4.86-.24,4.4a25.07,25.07,0,0,0,7.42-4.4c1.62-1.63,5.56-6,5.56-6Z" transform="translate(-4.22 -13.16)"/><path class="cls-13" d="M365.72,215s-.93-3.25-1.86-4.17-6.95-5.1-8.11-6.26-3,2.55-3.93,3.71a79.68,79.68,0,0,0-5.8,8.57c-.69,1.62,1.39,2.78,2.78,2.32s7.88-6.26,7.88-6.26" transform="translate(-4.22 -13.16)"/><path class="cls-9" d="M342.32,229.39s-.24,4.87,2.08,7.42,7,3.47,7,3.47" transform="translate(-4.22 -13.16)"/><path class="cls-8" d="M288.3,118.49s11.89-6.08,12.72-20.18S287.19,66.79,267.29,61s-43.41-1.38-55.85,6.36S184.9,87,178,105s-5.53,37.87,4.7,42,27.64,6.36,35.66,4.7,19.08-16.59,32.35-20.46,25.43-6.08,28.75-7.46A64.73,64.73,0,0,0,288.3,118.49Z" transform="translate(-4.22 -13.16)"/><path class="cls-9" d="M201.26,132.69s-9.64,9.13-14.2,9.9" transform="translate(-4.22 -13.16)"/><path class="cls-9" d="M181.48,119.24s12.93,6.35,19,4.83" transform="translate(-4.22 -13.16)"/><path class="cls-9" d="M195.94,97.43s11.41,8.11,19.53,5.32" transform="translate(-4.22 -13.16)"/><path class="cls-9" d="M245.66,75.1s-1.52,15.48-6.85,17.76" transform="translate(-4.22 -13.16)"/><path class="cls-9" d="M262.92,94.13S272.81,89.31,275.6,84" transform="translate(-4.22 -13.16)"/><path class="cls-9" d="M297.67,103.52s-12.43,4.56-18.26,2.28" transform="translate(-4.22 -13.16)"/><path class="cls-11" d="M208.67,152.5s-1.66,6.36-2.48,11.61,14.92,12.72,14.92,12.72,7.19,2.49-7.18,7.74-26,11.61-32.07,23-1.94,24.88,6.35,29.86a16.35,16.35,0,0,1,0-6.64,24.83,24.83,0,0,1,1.94-4.7s.28,10.51,7.46,14.93,16,13.83,13.28,17.42L208.12,262s9.12,1.66,15.48-3.87,6.36-18.24,3.6-27.37-8.3-16-5-24.88,13.55-20.46,13-27.09-23.51-37.05-23.51-37.05Z" transform="translate(-4.22 -13.16)"/><path class="cls-13" d="M280,109.09s8.3,18,8.85,24.61-1.38,9.12-.55,11.06,5.25,14.65,3,23-10.78,25.71-13.55,27.64-19.35-1.93-19.35-1.93.55,10.78,1.66,15.2A67,67,0,0,0,264,218.85a27.22,27.22,0,0,1-5.81,12.45c-4.7,5.25-8.29,7.46-11.89,7.74s-20.46-17.42-20.73-19.36,2.21-18.8,2.21-29-4.15-23.5-4.15-23.5-7.74-5.53-9.67-11.88a61.94,61.94,0,0,1-2.22-13.55l-.82-7.47s13.82-22.11,36.21-27.09S280,109.09,280,109.09Z" transform="translate(-4.22 -13.16)"/><path class="cls-9" d="M272.82,129.55s-4.43,3.6-.83,10.79" transform="translate(-4.22 -13.16)"/><path class="cls-9" d="M281.39,156.37s-3.87,3-6.64,3.32" transform="translate(-4.22 -13.16)"/><path class="cls-9" d="M281.11,164.39s-9.12,5-21.29-1.38c0,0,6.36,10,11.89,10S281.11,164.39,281.11,164.39Z" transform="translate(-4.22 -13.16)"/><path class="cls-9" d="M262.59,128.72S256,126,250.14,127.07a11.49,11.49,0,0,0-8,6.08" transform="translate(-4.22 -13.16)"/><path class="cls-9" d="M274.75,127.62s8.57-4.43,11.34,1.93" transform="translate(-4.22 -13.16)"/><path class="cls-10" d="M254,142.19c.2,2.21-.69,4.09-2,4.21s-2.5-1.57-2.71-3.78.69-4.08,2-4.2S253.8,140,254,142.19Z" transform="translate(-4.22 -13.16)"/><path class="cls-10" d="M278.89,140.54c.2,2.2-.68,4.08-2,4.2s-2.5-1.57-2.7-3.77.68-4.09,2-4.21S278.69,138.33,278.89,140.54Z" transform="translate(-4.22 -13.16)"/><path class="cls-11" d="M217.24,135.36s7.47,11.33,8.57,8.85.83-13.55.83-14.38S221.67,130.66,217.24,135.36Z" transform="translate(-4.22 -13.16)"/><polygon class="cls-11" points="254.22 180.26 240.12 176.67 254.22 188 254.22 180.26"/><path class="cls-9" d="M223.6,167.15s3,1.39,4.43-2.21" transform="translate(-4.22 -13.16)"/><path class="cls-8" d="M208.67,152.5a74.84,74.84,0,0,1,30.69-29C260.65,112.69,284,119,284,119s-6.73-17.36-8.39-19.85S254.84,88.08,231.34,95s-31.51,31.25-31.24,33.46S208.67,152.5,208.67,152.5Z" transform="translate(-4.22 -13.16)"/><path class="cls-11" d="M224.43,206.41a43,43,0,0,0,10.51,10c6.91,4.7,10.5,5.25,11.33,8.29s3.87,16,.83,16.31-14.37-.27-19.9-10.23S221.39,212.22,224.43,206.41Z" transform="translate(-4.22 -13.16)"/><path class="cls-11" d="M254,221.34s-1.39,16,.55,16.59,11.33-6.36,14.37-11.33,2.22-7.75,1.39-10.51-2.21-7.74-4.15-6.91S260.37,218.3,254,221.34Z" transform="translate(-4.22 -13.16)"/><path class="cls-6" d="M266.91,308.28a19.74,19.74,0,0,0,.23-3.1c0-8.12-4-8.12-4-16.25s4-8.14,4-16.27-4-8.13-4-16.27" transform="translate(-4.22 -13.16)"/><path class="cls-6" d="M263.14,321.45c0-4.69,1.33-6.67,2.45-9.07" transform="translate(-4.22 -13.16)"/><path class="cls-6" d="M282.16,269c-1-4.76-3.68-5.94-3.68-12.65" transform="translate(-4.22 -13.16)"/><path class="cls-6" d="M278.48,321.45c0-8.13,4-8.13,4-16.27s-4-8.12-4-16.25c0-6.1,2.25-7.63,3.38-11.44" transform="translate(-4.22 -13.16)"/><path class="cls-6" d="M295.68,281.09a16.28,16.28,0,0,0,2.15-8.43c0-8.13-4-8.13-4-16.27" transform="translate(-4.22 -13.16)"/><path class="cls-6" d="M293.83,321.45c0-8.13,4-8.13,4-16.27s-4-8.12-4-16.25a16.81,16.81,0,0,1,.57-4.65" transform="translate(-4.22 -13.16)"/></g><g id="Cooking_Pots" data-name="Cooking Pots"><path class="cls-10" d="M179.32,350.42a3.89,3.89,0,0,1-1.8-.44l-21.74-11a4,4,0,0,1,3.61-7.11l21.74,11a4,4,0,0,1-1.81,7.55Z" transform="translate(-4.22 -13.16)"/><path class="cls-10" d="M315.52,350.42a3.89,3.89,0,0,0,1.8-.44l21.74-11a4,4,0,1,0-3.62-7.11l-21.73,11a4,4,0,0,0,1.81,7.55Z" transform="translate(-4.22 -13.16)"/><path class="cls-14" d="M171.41,314.76H313a0,0,0,0,1,0,0V428.94a14.32,14.32,0,0,1-14.32,14.32H185.74a14.32,14.32,0,0,1-14.32-14.32V314.76A0,0,0,0,1,171.41,314.76Z"/><path class="cls-15" d="M195.71,440.09V327.91H182.55V440.09a16.33,16.33,0,0,0,16.33,16.33H212A16.33,16.33,0,0,1,195.71,440.09Z" transform="translate(-4.22 -13.16)"/><path class="cls-15" d="M297.14,327.91V440.09a16.33,16.33,0,0,1-16.33,16.33H294a16.33,16.33,0,0,0,16.32-16.33V327.91Z" transform="translate(-4.22 -13.16)"/><path class="cls-16" d="M279.63,429.54a9.7,9.7,0,0,1-5.55-8.74c-.3-15.51,3.1-79.27,6.33-84.55,3.79-6.21,11.38,60.2,10.35,75.73C289.93,424.4,286.2,432.49,279.63,429.54Z" transform="translate(-4.22 -13.16)"/><rect class="cls-10" x="168.55" y="312.23" width="147.31" height="4.83" rx="2.12"/><circle class="cls-15" cx="408.54" cy="343.51" r="8.12"/><path class="cls-14" d="M459.93,372.14c-.9-8.6-21.67-15.47-47.17-15.47s-46.27,6.87-47.17,15.47Z" transform="translate(-4.22 -13.16)"/><path class="cls-10" d="M368,386.24a2.55,2.55,0,0,1-1.19-.29l-14.39-7.31a2.64,2.64,0,1,1,2.39-4.7l14.39,7.31a2.64,2.64,0,0,1-1.2,5Z" transform="translate(-4.22 -13.16)"/><path class="cls-10" d="M458.16,386.24a2.55,2.55,0,0,0,1.19-.29l14.39-7.31a2.64,2.64,0,1,0-2.39-4.7L457,381.25a2.64,2.64,0,0,0,1.2,5Z" transform="translate(-4.22 -13.16)"/><path class="cls-14" d="M361.33,358.19h93.74a0,0,0,0,1,0,0v70.75a14.32,14.32,0,0,1-14.32,14.32H375.65a14.32,14.32,0,0,1-14.32-14.32V358.19A0,0,0,0,1,361.33,358.19Z"/><path class="cls-15" d="M378.84,445.61V371.34h-8.71v74.27a10.81,10.81,0,0,0,10.81,10.81h8.71A10.81,10.81,0,0,1,378.84,445.61Z" transform="translate(-4.22 -13.16)"/><path class="cls-15" d="M446,371.34v74.27a10.81,10.81,0,0,1-10.81,10.81h8.72a10.8,10.8,0,0,0,10.8-10.81V371.34Z" transform="translate(-4.22 -13.16)"/><path class="cls-16" d="M434.4,438.62a6.41,6.41,0,0,1-3.67-5.78c-.2-10.27,2-52.48,4.18-56,2.52-4.11,7.54,39.86,6.86,50.14C441.22,435.22,438.75,440.58,434.4,438.62Z" transform="translate(-4.22 -13.16)"/><rect class="cls-10" x="359.43" y="356.51" width="97.53" height="3.2" rx="1.6"/><path class="cls-16" d="M453.23,368.81s-10.36-9.9-33.09-9.43c0,0,12,2.32,18.56,8.89Z" transform="translate(-4.22 -13.16)"/></g></svg>